name C:\Users\u0101727\Documents\MyRepositories\upper-imu-dc\Results\main_tracking\Case_73\kinematics.mot
datacolumns 43
datarows 6
range 2.80000000 2.90000000
endheader 
time	clav_prot	clav_elev	scapula_abduction	scapula_elevation	scapula_upward_rot	scapula_winging	plane_elv	shoulder_elv	axial_rot	TrapeziusScapula_M/activation	TrapeziusScapula_S/activation	TrapeziusScapula_I/activation	TrapeziusClavicle_S/activation	SerratusAnterior_I/activation	SerratusAnterior_M/activation	SerratusAnterior_S/activation	Rhomboideus_S/activation	Rhomboideus_I/activation	LevatorScapulae/activation	Coracobrachialis/activation	DeltoideusClavicle_A/activation	DeltoideusScapula_P/activation	DeltoideusScapula_M/activation	LatissimusDorsi_S/activation	LatissimusDorsi_M/activation	LatissimusDorsi_I/activation	PectoralisMajorClavicle_S/activation	PectoralisMajorThorax_I/activation	PectoralisMajorThorax_M/activation	TeresMajor/activation	Infraspinatus_I/activation	Infraspinatus_S/activation	PectoralisMinor/activation	TeresMinor/activation	Subscapularis_S/activation	Subscapularis_M/activation	Subscapularis_I/activation	Supraspinatus_P/activation	Supraspinatus_A/activation	TRIlong/activation	BIC_long/activation	BIC_brevis/activation	
          2.80000000	        -18.31398042	         -6.24256140	         -7.05521429	         -2.67964125	          6.61759539	          6.76305011	        -24.11285415	         17.52037496	         42.65645566	          0.01000000	          0.02179934	          0.01000000	          0.02605287	          0.01000000	          0.04440066	          0.01000000	          0.01000004	          0.01004157	          0.04269894	          0.01000001	          0.01000000	          0.01000000	          0.01000000	          0.01000000	          0.01000000	          0.01000000	          0.01193317	          0.01000000	          0.01000000	          0.01000001	          0.01000000	          0.01000000	          0.01000000	          0.01000000	          0.01345798	          0.01044071	          0.01280171	          0.01000000	          0.01000000	          0.01000000	          0.01000000	          0.01074348	
          2.82000000	        -18.20877192	         -5.45399642	         -7.82029658	         -3.06219128	          7.13392878	          6.74430245	        -24.02532982	         17.69079926	         42.62349270	          0.01000000	          0.02258761	          0.01000000	          0.02474972	          0.01000001	          0.04355046	          0.01000000	          0.01000006	          0.01044449	          0.04134096	          0.01000000	          0.01000000	          0.01000000	          0.01000000	          0.01000000	          0.01000000	          0.01000000	          0.01116587	          0.01000000	          0.01000000	          0.01000000	          0.01000000	          0.01000000	          0.01000000	          0.01000000	          0.01275384	          0.01058429	          0.01284599	          0.01000000	          0.01000000	          0.01000000	          0.01000000	          0.01000000	
          2.84000000	        -18.34092502	         -5.73496253	         -7.76118490	         -3.41414023	          7.57674703	          6.74371261	        -23.96139167	         17.82540593	         42.57767392	          0.01000000	          0.02300433	          0.01000000	          0.02359162	          0.01000001	          0.04269388	          0.01000000	          0.01000007	          0.01169001	          0.03930932	          0.01000000	          0.01000000	          0.01000000	          0.01000000	          0.01000000	          0.01000000	          0.01000000	          0.01087830	          0.01000000	          0.01000000	          0.01000000	          0.01000000	          0.01000000	          0.01000000	          0.01000000	          0.01264671	          0.01030297	          0.01243219	          0.01000000	          0.01000000	          0.01000000	          0.01000000	          0.01000000	
          2.86000000	        -18.45964403	         -5.98889526	         -7.72155800	         -3.72246166	          7.94570029	          6.75433852	        -23.91112959	         17.91357830	         42.51130591	          0.01000000	          0.02351133	          0.01000000	          0.02271718	          0.01000000	          0.04192360	          0.01000000	          0.01000037	          0.01275286	          0.03819967	          0.01000000	          0.01000000	          0.01000000	          0.01000000	          0.01000000	          0.01000000	          0.01000000	          0.01133682	          0.01000000	          0.01000000	          0.01000000	          0.01000000	          0.01000000	          0.01000000	          0.01000000	          0.01247053	          0.01019966	          0.01189987	          0.01000000	          0.01000000	          0.01000000	          0.01000000	          0.01000000	
          2.88000000	        -18.56245100	         -6.20750438	         -7.70101770	         -3.98025982	          8.23809341	          6.77239804	        -23.86781470	         17.95135963	         42.41784381	          0.01000000	          0.02404564	          0.01000000	          0.02206326	          0.01000000	          0.04125819	          0.01000000	          0.01003646	          0.01366826	          0.03743912	          0.01000000	          0.01000000	          0.01000000	          0.01030000	          0.01000000	          0.01000000	          0.01000000	          0.01233631	          0.01000000	          0.01000000	          0.01000000	          0.01000000	          0.01000000	          0.01000000	          0.01000000	          0.01268893	          0.01007074	          0.01096506	          0.01000000	          0.01000014	          0.01000000	          0.01002717	          0.01000000	
          2.90000000	        -18.64887383	         -6.38951272	         -7.70061821	         -4.18632305	          8.45190653	          6.79655145	        -23.82750953	         17.94175225	         42.29581955	          0.01000000	          0.02674272	          0.01000000	          0.02260270	          0.01020309	          0.04342991	          0.01000000	          0.01013574	          0.01283353	          0.03634157	          0.01000000	          0.01000000	          0.01000000	          0.01436434	          0.01000000	          0.01000000	          0.01000000	          0.01331447	          0.01000000	          0.01000000	          0.01000000	          0.01000000	          0.01000000	          0.01000000	          0.01000000	          0.01129124	          0.01000001	          0.01000001	          0.01000000	          0.01164588	          0.01000000	          0.01105074	          0.01000000	
